<svg width="173" height="40" viewBox="0 0 173 40" fill="none" xmlns="http://www.w3.org/2000/svg">
<g clip-path="url(#clip0_2104_874)">
<path d="M62.3716 16.8534H67.7764C69.2818 16.8534 70.4961 17.2203 71.4193 17.9541C72.3425 18.681 73.0007 19.6399 73.0007 20.8306C73.0007 21.6129 72.9844 23.1154 72.527 23.8215C72.0779 24.5207 71.3959 25.0434 70.481 25.3896C69.5661 25.7357 68.5719 25.9157 67.9232 25.9296L65.5958 25.9711V30.4882H62.3716V16.8534ZM65.5459 19.7617V23.2925L67.5191 23.2924C68.1096 23.2924 68.6128 23.1159 69.0287 22.7628C69.4528 22.4098 69.6649 21.9909 69.6649 21.5063C69.6649 20.9525 69.4279 20.5232 68.9538 20.2186C68.4797 19.914 67.9873 19.7615 67.114 19.7615L65.5459 19.7617Z" fill="white"/>
<path d="M74.8516 16.8532H83.6129V19.5532H78.0564V22.0303H83.4479V24.9635H78.0564V27.4523H83.6129V30.4881H74.8516V16.8532Z" fill="white"/>
<path d="M86.624 16.8532H92.2384C93.7084 16.8532 94.6289 17.215 95.4811 17.9332C96.3377 18.655 96.6327 19.7973 96.7683 20.8513C96.8633 21.5893 96.8088 22.3007 96.4133 23.0553C96.0253 23.8099 94.8549 24.6324 93.7674 24.8852L98.0522 30.4881H94.1679L90.1498 25.0616L89.7916 25.0616V30.4881H86.624V16.8532ZM89.814 19.5078V23.029H90.9571C92.6062 23.029 93.4307 22.2082 93.4307 20.9551C93.4307 19.5565 91.9268 19.5149 91.0019 19.5078H89.814Z" fill="white"/>
<path d="M98.1914 16.8532H108.693V19.8057H105.113V30.4881H101.747V19.8057H98.1914V16.8532Z" fill="white"/>
<path d="M112.642 16.8532H115.998L120.623 30.4881H117.226L116.344 28.0299H112.194L111.151 30.4881H107.981L112.642 16.8532ZM114.279 21.2393L112.77 25.4586H115.567L114.279 21.2393Z" fill="white"/>
<path d="M123.938 16.8532H127.076L129.641 24.4229L132.433 16.8532H135.547L137.348 30.4881H134.261L133.348 22.7593L130.262 30.4879H128.991L126.084 22.6181L124.75 30.4879L121.893 30.4881L123.938 16.8532Z" fill="white"/>
<path d="M139.446 16.8532H142.695V30.4881H139.446V16.8532Z" fill="white"/>
<path d="M154.891 16.9279H157.854V30.4881H154.572L148.853 22.4116V30.4881H145.648V16.9279H148.709L154.891 25.32V16.9279Z" fill="white"/>
<path d="M164.519 16.8532H167.875L172.5 30.4881H169.103L168.221 28.0299H164.071L163.029 30.4881H159.858L164.519 16.8532ZM166.156 21.2393L164.648 25.4586H167.444L166.156 21.2393Z" fill="white"/>
<path d="M0 40C0 40 10.8287 22.8309 12.5932 19.9846C14.3575 17.1378 15.8775 16.8705 20.7519 16.8705H31.4955C30.8621 17.4002 29.7788 18.5062 28.9683 19.806L18.0412 37.3312C16.9486 39.2895 14.6382 40 11.8657 40H0Z" fill="white"/>
<path d="M42.7765 16.8705C37.9021 16.8705 36.3736 17.1378 34.5167 19.9845C32.6595 22.8308 27.6709 30.5006 27.6709 30.5006H40.1641C42.3453 30.5006 44.4683 29.5459 45.3824 27.9678L52.7637 16.8705H42.7765Z" fill="white"/>
<path d="M37.6581 3.05176e-05C42.5324 3.05176e-05 44.0609 0.267307 45.9179 3.11405C47.7751 5.96032 52.7637 13.6302 52.7637 13.6302H40.2705C38.0893 13.6302 35.9662 12.6754 35.0521 11.0973L27.6709 3.05176e-05H37.6581Z" fill="white"/>
</g>
<defs>
<clipPath id="clip0_2104_874">
<rect width="172.5" height="40" fill="white"/>
</clipPath>
</defs>
</svg>
